# xmcd
#
# Track frame offsets:
#	150
#	12088
#	27405
#	45996
#	67087
#	84963
#	96152
#	107406
#	119522
#	137443
#	151881
#	170388
#
# Disc length: 2529 seconds
#
# Revision: 1
# Processed by: cddbd v1.5.2PL0 Copyright (c) Steve Scherf et al.
# Submitted via: audiograbber 1.83.01
#
DISCID=8a09df0c
DTITLE=Modern Earl - Hunker Down
DYEAR=2005
DGENRE=Country
TTITLE0=Hot Coals And Cold Beer
TTITLE1=Hunker Down
TTITLE2=You Shook Me
TTITLE3=T For Texas
TTITLE4=Who Will Sing For Me
TTITLE5=Fast Train To Nowwhere
TTITLE6=On The Road Again
TTITLE7=Denver
TTITLE8=Trigger Happy Sister
TTITLE9=Mess With Texas
TTITLE10=Shake That Ass For Jesus
TTITLE11=Alma Lee's Fried Chicken
EXTD=
EXTT0=
EXTT1=
EXTT2=
EXTT3=
EXTT4=
EXTT5=
EXTT6=
EXTT7=
EXTT8=
EXTT9=
EXTT10=
EXTT11=
PLAYORDER=
